<svg width="196" height="173" viewBox="0 0 196 173" fill="none" xmlns="http://www.w3.org/2000/svg">
<path d="M0 11C0 4.92487 4.92487 0 11 0H155C161.075 0 166 4.92487 166 11V38C166 44.0751 161.075 49 155 49H11C4.92487 49 0 44.0751 0 38V11Z" fill="#973D3D"/>
<path d="M30 73C30 66.9249 34.9249 62 41 62H185C191.075 62 196 66.9249 196 73V100C196 106.075 191.075 111 185 111H41C34.9249 111 30 106.075 30 100V73Z" fill="#A89D04"/>
<path d="M0 135C0 128.925 4.92487 124 11 124H155C161.075 124 166 128.925 166 135V162C166 168.075 161.075 173 155 173H11C4.92487 173 0 168.075 0 162V135Z" fill="#2F4A80"/>
</svg>
